PathFileType	4	(X/Y/Z)	./resultDataOpenSim/trcMotMarkerGrf/sub06/qtm-02-01.trc
DataRate	CameraRate	NumFrames	NumMarkers	Units	OrigDataRate	OrigDataStartFrame	OrigNumFrames
250.000000	250.000000	6	24	m	250.000000	382	509
Frame#	Time	L.Toe.Tip			R.Toe.Tip			L.Ankle.Lat			R.Ankle.Lat			L.Ankle.Med			R.Ankle.Med			L.Heel			R.Heel			L.Knee.Lat			R.Knee.Lat			L.Knee.Med			R.Knee.Med			L.Thigh.Upper			R.Thigh.Upper			L.ASIS			R.ASIS			V.Sacral			L.Acromium			R.Acromium			C7			L.Elbow			R.Elbow			L.Wrist.Lat			R.Wrist.Lat
		X1	Y1	Z1	X2	Y2	Z2	X3	Y3	Z3	X4	Y4	Z4	X5	Y5	Z5	X6	Y6	Z6	X7	Y7	Z7	X8	Y8	Z8	X9	Y9	Z9	X10	Y10	Z10	X11	Y11	Z11	X12	Y12	Z12	X13	Y13	Z13	X14	Y14	Z14	X15	Y15	Z15	X16	Y16	Z16	X17	Y17	Z17	X18	Y18	Z18	X19	Y19	Z19	X20	Y20	Z20	X21	Y21	Z21	X22	Y22	Z22	X23	Y23	Z23	X24	Y24	Z24

382	1.524	1.5757067	0.12649759	-0.077082829	0.90983756	0.034819144	0.065664832	1.4478775	0.1068698	-0.089923799	0.78040247	0.079843498	0.090247848	1.4501521	0.12496015	-0.0070622129	0.80759669	0.10215761	0.005667648	1.3980143	0.050309638	-0.038885432	0.7243999	0.072177439	0.029792011	1.3347773	0.45898747	-0.093925799	0.95785415	0.43096666	0.13263101	1.3241692	0.44881903	0.028815929	0.93657335	0.43516032	0.0012958283	1.1446779	0.79942638	-0.14354689	1.0535737	0.77884913	0.19165581	1.2010435	0.84367066	-0.084135896	1.1667932	0.83156437	0.16223567	0.99966585	0.90751905	0.020962681	1.0902234	1.3203542	-0.1474314	1.1112321	1.3098434	0.21201491	1.0242488	1.3489605	0.037642162	0.96956502	1.0373271	-0.18607968	1.1706132	1.0007046	0.31025669	1.0009137	0.81050354	-0.26710985	1.4139038	1.0048479	0.247794
383	1.528	1.5848686	0.12751389	-0.076202833	0.90994398	0.034818565	0.065658671	1.4571763	0.10657166	-0.088363814	0.78109639	0.081028347	0.090425579	1.4586576	0.12473556	-0.0056360668	0.80843968	0.10298683	0.0058556557	1.407873	0.04952196	-0.037254647	0.72496509	0.07398712	0.030193466	1.3413119	0.45771503	-0.092918415	0.96268413	0.43013285	0.13256386	1.3306382	0.44776112	0.029858366	0.94177646	0.43432945	0.0011748178	1.1519561	0.79783632	-0.14371479	1.0591697	0.77752814	0.19082591	1.2081637	0.84216624	-0.084159287	1.1732802	0.82989738	0.1623265	1.0064215	0.90603621	0.020406461	1.0968277	1.3186585	-0.14787644	1.1174071	1.3083453	0.21178967	1.0305984	1.3475369	0.037148055	0.97565053	1.0359965	-0.18598648	1.1777787	0.99933342	0.30992699	1.0051799	0.80910491	-0.2673458	1.4207815	1.0045187	0.2469024
384	1.532	1.593531	0.1280889	-0.075268148	0.91006445	0.034823499	0.065660218	1.4659025	0.10604113	-0.086716692	0.78191531	0.082293592	0.090738531	1.4666663	0.12431534	-0.0041076674	0.80935739	0.10390773	0.0060918015	1.4170534	0.048608723	-0.035473939	0.72558642	0.075926269	0.030667038	1.3478643	0.45648109	-0.091976441	0.9676226	0.42931067	0.13253193	1.3371553	0.44682809	0.030800138	0.94710515	0.43349512	0.00108897	1.159284	0.79630369	-0.14387785	1.0648481	0.77633025	0.19006944	1.2153193	0.84069501	-0.084179987	1.1797536	0.82833083	0.16234813	1.0132196	0.90456897	0.019820938	1.1034672	1.3170024	-0.14834062	1.1236082	1.3068672	0.21154292	1.0369965	1.3461381	0.036637376	0.98179624	1.0346758	-0.18592136	1.1848584	0.99795247	0.30956356	1.009628	0.80771611	-0.26756847	1.4276071	1.0040641	0.24605745
385	1.536	1.6016304	0.12817264	-0.07420825	0.91020435	0.034837851	0.065669901	1.4740691	0.10525983	-0.084999659	0.78285978	0.083646789	0.091147633	1.4743656	0.12366939	-0.0024587864	0.81036879	0.10491663	0.0063694219	1.4255731	0.04753573	-0.033526051	0.726286	0.07799982	0.031194857	1.3544274	0.45526206	-0.091106279	0.97265974	0.42851582	0.13253704	1.3437157	0.44599425	0.03164104	0.95256506	0.43265546	0.0010375567	1.1666563	0.79484545	-0.14403701	1.0707088	0.77518466	0.18943554	1.2225101	0.83926028	-0.084192066	1.1862259	0.82686295	0.16232692	1.02	0.90313236	0.019153082	1.1101411	1.315387	-0.14882598	1.1298466	1.3054198	0.21126535	1.0434382	1.3447652	0.036110619	0.98800082	1.0333766	-0.18588139	1.191845	0.99657243	0.30917504	1.0142614	0.80634541	-0.26777374	1.434366	1.0034929	0.24525261
386	1.54	1.6091312	0.12773219	-0.072955833	0.91037132	0.03486411	0.065687194	1.4817044	0.10421777	-0.08325019	0.78393216	0.08509908	0.09163216	1.4817445	0.12278241	-0.00072564334	0.81147356	0.10601169	0.0066943852	1.4334261	0.046297536	-0.031496489	0.72708023	0.080211479	0.031766721	1.3609946	0.45404412	-0.09030504	0.97777389	0.42774797	0.13257293	1.3503096	0.44524422	0.032382537	0.95816883	0.43180099	0.0010224805	1.1740663	0.79347472	-0.14419599	1.0767786	0.77403813	0.1889099	1.2297408	0.83786787	-0.084188715	1.1927387	0.82546849	0.16229502	1.0266909	0.90174704	0.018335215	1.1168557	1.3138092	-0.14933777	1.1361319	1.3040135	0.21095816	1.049917	1.3434153	0.03557036	0.99425867	1.0321039	-0.18586109	1.1987344	0.99520381	0.30877284	1.0190829	0.80499826	-0.26796231	1.4410473	1.0028139	0.24448452
387	1.544	1.616057	0.12677347	-0.071479417	0.91056613	0.034898107	0.065710348	1.4888445	0.1029123	-0.081513507	0.78512462	0.086651735	0.092184756	1.4886946	0.12164597	0.0010370285	0.8126465	0.10720166	0.0070923582	1.4405986	0.044901688	-0.029488348	0.72797591	0.082563496	0.032382218	1.3675701	0.45282702	-0.089562632	0.98298226	0.42699801	0.13264198	1.3569287	0.44457075	0.033027525	0.96392736	0.43092271	0.0010503242	1.1815026	0.79219825	-0.14436203	1.0829891	0.77288019	0.18840369	1.2370141	0.83652683	-0.084169758	1.1993252	0.82412985	0.16227317	1.0333025	0.90041862	0.017390566	1.1236205	1.3122695	-0.14987653	1.142469	1.3026551	0.21062148	1.0564292	1.3420925	0.035015511	1.0005628	1.030857	-0.18585958	1.2055351	0.99385824	0.3083666	1.0240985	0.80367638	-0.26814038	1.4476557	1.0020298	0.24374775
